<?xml version="1.0" encoding="UTF-8" standalone="no"?>
<svg width="51px" height="48px" viewBox="0 0 51 48" version="1.1" xmlns="http://www.w3.org/2000/svg" xmlns:xlink="http://www.w3.org/1999/xlink">
    <!-- Generator: Sketch 40 (33762) - http://www.bohemiancoding.com/sketch -->
    <title>rat</title>
    <desc>Created with Sketch.</desc>
    <defs></defs>
    <g id="Page-1" stroke="none" stroke-width="1" fill="none" fill-rule="evenodd">
        <g id="Sketch-icons-" transform="translate(-607.000000, -229.000000)">
            <g id="coloricons" transform="translate(421.649100, 67.379044)">
                <g id="rat" transform="translate(185.840617, 161.749331)">
                    <path d="M50.3031979,9.05268199 C50.3031979,4.06979363 46.2313599,0.0304364908 41.2084036,0.0304364908 C36.8244936,0.0304364908 33.1664139,3.10800052 32.3064627,7.20388258 C30.1377378,6.38209732 27.7858021,5.9281588 25.3269203,5.9281588 C22.867162,5.9281588 20.5161028,6.38209732 18.3473779,7.20388258 C17.4874267,3.10800052 13.829347,0.0304364908 9.44543702,0.0304364908 C4.42248072,0.0304364908 0.350642674,4.06979363 0.350642674,9.05268199 C0.350642674,13.2946592 3.3056838,16.8426844 7.28197172,17.8070864 C6.2957892,20.1254774 5.75141645,22.6734464 5.75141645,25.3475096 C5.75141645,36.0733289 14.5157301,47.7113734 25.3269203,47.7113734 C36.1381105,47.7113734 44.9024242,36.0733289 44.9024242,25.3475096 C44.9024242,22.6734464 44.3571748,20.1254774 43.3718689,17.8070864 C47.3481568,16.8426844 50.3031979,13.2946592 50.3031979,9.05268199" id="Fill-28" fill="#AAB1B2"></path>
                    <path d="M19.2976195,23.3343531 C19.2976195,24.6265995 18.2421851,25.6744844 16.9395476,25.6744844 C15.63691,25.6744844 14.580599,24.6265995 14.580599,23.3343531 C14.580599,22.0421067 15.63691,20.9950914 16.9395476,20.9950914 C18.2421851,20.9950914 19.2976195,22.0421067 19.2976195,23.3343531" id="Fill-29" fill="#4A4A4A"></path>
                    <path d="M36.0732416,23.3343531 C36.0732416,24.6265995 35.0169306,25.6744844 33.7142931,25.6744844 C32.4116555,25.6744844 31.3553445,24.6265995 31.3553445,23.3343531 C31.3553445,22.0421067 32.4116555,20.9950914 33.7142931,20.9950914 C35.0169306,20.9950914 36.0732416,22.0421067 36.0732416,23.3343531" id="Fill-30" fill="#4A4A4A"></path>
                    <path d="M27.6849923,42.9919781 C27.6849923,44.2842246 26.6295578,45.3312398 25.3269203,45.3312398 C24.0242828,45.3312398 22.9679717,44.2842246 22.9679717,42.9919781 C22.9679717,41.6997317 24.0242828,40.6518468 25.3269203,40.6518468 C26.6295578,40.6518468 27.6849923,41.6997317 27.6849923,42.9919781" id="Fill-31" fill="#4A4A4A"></path>
                    <path d="M8.19276607,47.5409291 C7.83861697,47.5409291 7.52566838,47.2896106 7.4625527,46.9321993 C7.39067095,46.5321768 7.66066581,46.1504163 8.06390488,46.0799775 L20.6949306,43.8702883 C21.0937866,43.7981103 21.4838766,44.0668211 21.5540051,44.4677131 C21.6258869,44.8677356 21.355892,45.2494961 20.952653,45.3199349 L8.32162725,47.5287545 C8.27867352,47.536581 8.23484319,47.5409291 8.19276607,47.5409291" id="Fill-32" fill="#4A4A4A"></path>
                    <path d="M20.8237918,41.9971397 C20.7817147,41.9971397 20.7378843,41.9936612 20.6949306,41.9858347 L8.06390488,39.7761455 C7.66066581,39.7057067 7.39067095,39.3239462 7.4625527,38.9239237 C7.53268123,38.5230317 7.9218946,38.2543209 8.32162725,38.3273685 L20.952653,40.5361881 C21.355892,40.6066269 21.6258869,40.9883874 21.5540051,41.3884099 C21.4908895,41.7458212 21.1779409,41.9971397 20.8237918,41.9971397" id="Fill-33" fill="#4A4A4A"></path>
                    <path d="M42.4610746,47.5409291 C42.4181208,47.5409291 42.3751671,47.536581 42.3313368,47.5287545 L29.7011877,45.3199349 C29.2979486,45.2494961 29.0279537,44.8677356 29.0998355,44.4677131 C29.169964,44.0668211 29.5574242,43.7989799 29.95891,43.8702883 L42.5890591,46.0799775 C42.9931748,46.1504163 43.2622931,46.5321768 43.1904113,46.9321993 C43.1281722,47.2896106 42.814347,47.5409291 42.4610746,47.5409291" id="Fill-34" fill="#4A4A4A"></path>
                    <path d="M29.8291722,41.9971397 C29.4758997,41.9971397 29.1629512,41.7458212 29.0998355,41.3884099 C29.0279537,40.9883874 29.2979486,40.6066269 29.7011877,40.5361881 L42.3313368,38.3273685 C42.7354524,38.2534513 43.1202828,38.5230317 43.1904113,38.9239237 C43.2622931,39.3239462 42.9931748,39.7057067 42.5890591,39.7761455 L29.95891,41.9858347 C29.9159563,41.9936612 29.872126,41.9971397 29.8291722,41.9971397" id="Fill-35" fill="#4A4A4A"></path>
                </g>
            </g>
        </g>
    </g>
</svg>